# xmcd
# 
# Track frame offsets:
#     150
#     11602
#     23697
#     38317
#     53142
#     66737
#     80745
#     100900
#     113887
#     127487
#     139592
#     149640
# 
# Disc length: 2178
# 
# Revision: 1
# Processed by: cddbd v1.5.2PL0 Copyright (c) Steve Scherf et al.
# Submitted via: fre:ac v1.1beta1pre5
# 
DISCID=ae08800c
DTITLE=The Blue Ridge Rangers - The Blue Ridge Rangers
DYEAR=1973
DGENRE=General Country
TTITLE0=Blue Ridge Mountain Blues
TTITLE1=Somewhere Listening
TTITLE2=You're The Reason
TTITLE3=Jambalaya
TTITLE4=She Thinks I Still Care
TTITLE5=California Blues (Blue Yodel #4)
TTITLE6=Workin' On A Building
TTITLE7=Please Help Me I'm Falling
TTITLE8=Have Thine Own Way
TTITLE9=I Ain't Never
TTITLE10=Hearts Of Stone
TTITLE11=Today I Started Loving You Again
EXTD=
EXTT0=
EXTT1=
EXTT2=
EXTT3=
EXTT4=
EXTT5=
EXTT6=
EXTT7=
EXTT8=
EXTT9=
EXTT10=
EXTT11=
PLAYORDER=
